<?xml version="1.0" encoding="UTF-8" standalone="no"?>
<svg
   xmlns:dc="http://purl.org/dc/elements/1.1/"
   xmlns:cc="http://creativecommons.org/ns#"
   xmlns:rdf="http://www.w3.org/1999/02/22-rdf-syntax-ns#"
   xmlns:svg="http://www.w3.org/2000/svg"
   xmlns="http://www.w3.org/2000/svg"
   xmlns:sodipodi="http://sodipodi.sourceforge.net/DTD/sodipodi-0.dtd"
   xmlns:inkscape="http://www.inkscape.org/namespaces/inkscape"
   viewBox="0 0 591 539"
   version="1.1"
   id="svg3723"
   sodipodi:docname="AL-Sylfaen.svg"
   inkscape:version="0.92.4 (5da689c313, 2019-01-14)">
  <metadata
     id="metadata3729">
    <rdf:RDF>
      <cc:Work
         rdf:about="">
        <dc:format>image/svg+xml</dc:format>
        <dc:type
           rdf:resource="http://purl.org/dc/dcmitype/StillImage" />
      </cc:Work>
    </rdf:RDF>
  </metadata>
  <defs
     id="defs3727" />
  <sodipodi:namedview
     pagecolor="#ffffff"
     bordercolor="#ffffff"
     borderopacity="1"
     objecttolerance="10"
     gridtolerance="10"
     guidetolerance="10"
     inkscape:pageopacity="0"
     inkscape:pageshadow="2"
     inkscape:window-width="1920"
     inkscape:window-height="1147"
     id="namedview3725"
     showgrid="false"
     inkscape:zoom="1.8144712"
     inkscape:cx="295.5"
     inkscape:cy="269.5"
     inkscape:window-x="4472"
     inkscape:window-y="236"
     inkscape:window-maximized="1"
     inkscape:current-layer="svg3723" />
  <path
     id="AL"
     d="m 257,35 -10.6,27 -14.2,36 -39,98 L 86,466 75.6,492 c -1.52,3.79 -2.89,8.63 -6.7,10.69 -2.24,1.2 -14.62,2.11 -17.9,2.33 l -25.182004,3.15 c -11.6,1.67112 -18.1022496,9.93225 -18.1022496,9.93225 L 1.1022495,529.44888 C -0.05595238,531.43598 -0.38,536.41 1.6,537.98 3.19,539.23 7.01,539 9,539 h 31 132 c 6.74,-0.01 8.86,0.49 9,-7 0.06,-3.59 0.67,-18.16 -1.02,-20.44 -2.27,-3.07 -9.52,-2.41 -12.98,-2.65 l -32,-2.74 -15,-1.2 c -1.98,-0.17 -4.76,-0.34 -5.77,-2.4 -1.07,-2.19 1.7,-8.29 2.58,-10.57 l 10.79,-27 38.4,-96 7.6,-19 c 1.31,-3.25 2.55,-7.16 5.53,-9.26 2.86,-2.02 6.55,-1.73 9.87,-1.74 h 84 v 154 c -0.01,3.09 0.45,6.97 -2.31,9.07 -2.94,2.22 -9.91,1.86 -13.69,2.35 l -40,3.67 c -3.66,0.27 -16,0.8 -17.98,3.47 -1.06,1.43 -0.98,3.74 -1.02,5.44 v 13 c 0,1.99 -0.23,5.81 1.02,7.4 1.35,1.7 4.03,1.56 5.98,1.6 h 15 68 294 c 1.94,0 5.72,0.25 7.26,-0.99 1.85,-1.49 1.71,-4.86 1.74,-7.01 v -21 -93 c -0.01,-9 -0.32,-10.88 -10,-11 h -17 c -2.75,0 -7.35,-0.19 -9.69,1.31 -3.08,1.99 -3.61,11.08 -4.31,14.69 l -7.92,44 -4.33,24 c -0.49,2.82 -1.19,8.33 -3.31,10.26 -2.26,2.07 -6.55,1.74 -9.44,1.74 H 355 c -2.77,-0.01 -6.44,0.29 -8.69,-1.6 C 342.67,497.34 344,482 344,477 V 396 47 c 0.01,-3.62 -0.47,-7.69 3.15,-9.83 2.28,-1.35 14.51,-2.01 17.85,-2.26 l 39,-3.82 c 3.53,-0.26 16.06,-0.63 18.18,-2.83 C 424.02,26.34 423.97,22.5 424,20 424.04,16.03 424.78,4.44 422.18,1.74 420.15,-0.36 415.72,0 413,0 H 372 208 c -2.54,0.01 -6.48,-0.32 -8.4,1.6 -2.54,2.54 -1.67,16.39 -1.6,20.4 0.18,9.61 6.35,8.07 14,8.83 z m 16,270 h -73 c -2.43,0 -7.26,0.53 -8.3,-2.31 -0.91,-2.49 2.28,-9.14 3.3,-11.69 l 11,-28 33.81,-86 11.14,-28 11.85,-30 c 1.04,-2.66 3.05,-9.62 5.55,-10.83 4.33,-2.1 4.61,5.51 4.65,7.83 v 38 z"
     inkscape:connector-curvature="0"
     style="fill:#ffffff;stroke:#ffffff;stroke-width:1"
     sodipodi:nodetypes="ccccccccccscscccccccccccccccccccccsccccscccccscccccsccsccccccccsccsccccscccccccccc" />
</svg>
