<?xml version="1.0" encoding="UTF-8" standalone="no"?>
<!DOCTYPE svg PUBLIC "-//W3C//DTD SVG 20010904//EN"
              "http://www.w3.org/TR/2001/REC-SVG-20010904/DTD/svg10.dtd">

<svg xmlns="http://www.w3.org/2000/svg"
     viewBox="0 0 591 539">
  <path id="AL"
        fill="white" stroke="black" stroke-width="1"
        d="M 257.00,35.00
           C 257.00,35.00 246.40,62.00 246.40,62.00
             246.40,62.00 232.20,98.00 232.20,98.00
             232.20,98.00 193.20,196.00 193.20,196.00
             193.20,196.00 86.00,466.00 86.00,466.00
             86.00,466.00 75.60,492.00 75.60,492.00
             74.08,495.79 72.71,500.63 68.90,502.69
             66.66,503.89 54.28,504.80 51.00,505.02
             51.00,505.02 17.00,508.17 17.00,508.17
             5.40,509.29 0.17,507.94 0.00,517.00
             0.00,517.00 0.00,530.00 0.00,530.00
             0.00,532.30 -0.38,536.41 1.60,537.98
             3.19,539.23 7.01,539.00 9.00,539.00
             9.00,539.00 40.00,539.00 40.00,539.00
             40.00,539.00 172.00,539.00 172.00,539.00
             178.74,538.99 180.86,539.49 181.00,532.00
             181.06,528.41 181.67,513.84 179.98,511.56
             177.71,508.49 170.46,509.15 167.00,508.91
             167.00,508.91 135.00,506.17 135.00,506.17
             135.00,506.17 120.00,504.97 120.00,504.97
             118.02,504.80 115.24,504.63 114.23,502.57
             113.16,500.38 115.93,494.28 116.81,492.00
             116.81,492.00 127.60,465.00 127.60,465.00
             127.60,465.00 166.00,369.00 166.00,369.00
             166.00,369.00 173.60,350.00 173.60,350.00
             174.91,346.75 176.15,342.84 179.13,340.74
             181.99,338.72 185.68,339.01 189.00,339.00
             189.00,339.00 273.00,339.00 273.00,339.00
             273.00,339.00 273.00,493.00 273.00,493.00
             272.99,496.09 273.45,499.97 270.69,502.07
             267.75,504.29 260.78,503.93 257.00,504.42
             257.00,504.42 217.00,508.09 217.00,508.09
             213.34,508.36 201.00,508.89 199.02,511.56
             197.96,512.99 198.04,515.30 198.00,517.00
             198.00,517.00 198.00,530.00 198.00,530.00
             198.00,531.99 197.77,535.81 199.02,537.40
             200.37,539.10 203.05,538.96 205.00,539.00
             205.00,539.00 220.00,539.00 220.00,539.00
             220.00,539.00 288.00,539.00 288.00,539.00
             288.00,539.00 582.00,539.00 582.00,539.00
             583.94,539.00 587.72,539.25 589.26,538.01
             591.11,536.52 590.97,533.15 591.00,531.00
             591.00,531.00 591.00,510.00 591.00,510.00
             591.00,510.00 591.00,417.00 591.00,417.00
             590.99,408.00 590.68,406.12 581.00,406.00
             581.00,406.00 564.00,406.00 564.00,406.00
             561.25,406.00 556.65,405.81 554.31,407.31
             551.23,409.30 550.70,418.39 550.00,422.00
             550.00,422.00 542.08,466.00 542.08,466.00
             542.08,466.00 537.75,490.00 537.75,490.00
             537.26,492.82 536.56,498.33 534.44,500.26
             532.18,502.33 527.89,502.00 525.00,502.00
             525.00,502.00 355.00,502.00 355.00,502.00
             352.23,501.99 348.56,502.29 346.31,500.40
             342.67,497.34 344.00,482.00 344.00,477.00
             344.00,477.00 344.00,396.00 344.00,396.00
             344.00,396.00 344.00,47.00 344.00,47.00
             344.01,43.38 343.53,39.31 347.15,37.17
             349.43,35.82 361.66,35.16 365.00,34.91
             365.00,34.91 404.00,31.09 404.00,31.09
             407.53,30.83 420.06,30.46 422.18,28.26
             424.02,26.34 423.97,22.50 424.00,20.00
             424.04,16.03 424.78,4.44 422.18,1.74
             420.15,-0.36 415.72,0.00 413.00,0.00
             413.00,0.00 372.00,0.00 372.00,0.00
             372.00,0.00 208.00,0.00 208.00,0.00
             205.46,0.01 201.52,-0.32 199.60,1.60
             197.06,4.14 197.93,17.99 198.00,22.00
             198.18,31.61 204.35,30.07 212.00,30.83
             212.00,30.83 257.00,35.00 257.00,35.00 Z
           M 273.00,305.00
           C 273.00,305.00 200.00,305.00 200.00,305.00
             197.57,305.00 192.74,305.53 191.70,302.69
             190.79,300.20 193.98,293.55 195.00,291.00
             195.00,291.00 206.00,263.00 206.00,263.00
             206.00,263.00 239.81,177.00 239.81,177.00
             239.81,177.00 250.95,149.00 250.95,149.00
             250.95,149.00 262.80,119.00 262.80,119.00
             263.84,116.34 265.85,109.38 268.35,108.17
             272.68,106.07 272.96,113.68 273.00,116.00
             273.00,116.00 273.00,154.00 273.00,154.00
             273.00,154.00 273.00,305.00 273.00,305.00 Z" />
</svg>
